<svg id="svg" version="1.1" width="400" height="399.5203836930456" viewBox="0 0 400 399.5203836930456" xmlns="http://www.w3.org/2000/svg" xmlns:xlink="http://www.w3.org/1999/xlink" ><g id="svgg"><path id="path0" d="M206.194 115.335 C 197.004 116.486,195.193 116.759,194.829 117.052 C 194.596 117.239,193.596 117.525,192.607 117.686 C 190.535 118.026,180.119 121.417,179.820 121.849 C 179.710 122.009,178.407 122.563,176.923 123.081 C 175.440 123.600,174.226 124.150,174.226 124.303 C 174.226 124.457,173.237 124.984,172.028 125.475 C 170.819 125.965,169.830 126.525,169.830 126.720 C 169.830 126.914,169.560 127.073,169.231 127.073 C 168.274 127.073,168.027 126.598,176.821 141.658 C 178.104 143.856,180.174 147.453,181.420 149.650 C 182.666 151.848,184.980 155.856,186.562 158.557 C 188.144 161.258,189.354 163.604,189.251 163.771 C 189.148 163.938,190.984 163.140,193.333 161.998 C 196.017 160.692,199.012 159.596,201.399 159.048 C 203.487 158.569,205.627 157.966,206.154 157.710 C 207.315 157.145,221.573 157.058,222.777 157.608 C 223.814 158.082,223.719 158.054,225.574 158.414 C 228.227 158.928,231.519 159.893,232.368 160.404 C 232.807 160.669,234.066 161.222,235.165 161.633 C 236.263 162.044,237.400 162.618,237.691 162.908 C 238.692 163.910,239.277 163.425,241.268 159.940 C 242.367 158.017,244.935 153.566,246.975 150.050 C 251.811 141.712,254.272 137.441,257.338 132.068 C 258.717 129.650,260.023 127.559,260.239 127.420 C 260.455 127.282,259.397 126.568,257.888 125.835 C 256.379 125.101,255.055 124.394,254.945 124.264 C 254.835 124.133,253.666 123.603,252.348 123.087 C 251.029 122.570,249.770 122.013,249.550 121.849 C 249.331 121.685,247.892 121.151,246.354 120.662 C 244.815 120.172,243.377 119.635,243.157 119.467 C 242.937 119.299,241.049 118.765,238.961 118.280 C 236.873 117.796,234.805 117.241,234.366 117.048 C 231.618 115.841,211.784 114.635,206.194 115.335 M264.397 210.889 C 264.100 214.923,263.862 216.463,263.365 217.582 C 263.170 218.022,262.601 220.045,262.100 222.078 C 261.599 224.111,261.057 225.774,260.895 225.774 C 260.734 225.774,260.386 226.449,260.123 227.273 C 259.357 229.676,256.597 234.345,253.922 237.762 C 252.412 239.693,245.661 246.201,244.148 247.186 C 243.163 247.826,242.133 248.562,241.859 248.821 C 241.584 249.080,240.640 249.610,239.761 249.998 C 238.881 250.386,238.162 250.827,238.162 250.977 C 238.162 251.128,237.038 251.666,235.664 252.174 C 234.291 252.681,233.073 253.232,232.958 253.398 C 232.843 253.563,231.315 254.079,229.562 254.543 C 227.808 255.008,226.014 255.557,225.574 255.763 C 222.502 257.206,205.736 257.161,203.956 255.705 C 203.714 255.508,202.707 255.235,201.719 255.099 L 199.922 254.853 199.422 257.397 C 199.147 258.796,198.795 260.030,198.639 260.140 C 198.483 260.250,197.942 262.228,197.436 264.535 C 196.930 266.843,196.381 268.911,196.214 269.131 C 196.048 269.351,195.494 271.419,194.984 273.726 C 194.473 276.034,193.943 278.012,193.806 278.122 C 193.668 278.232,193.139 280.120,192.629 282.318 C 192.119 284.515,191.569 286.494,191.407 286.713 C 191.245 286.933,190.802 288.530,190.422 290.262 C 189.674 293.676,189.812 294.087,191.708 294.100 C 192.203 294.103,192.607 294.258,192.607 294.444 C 192.607 294.888,199.853 296.093,204.309 296.390 C 206.240 296.518,207.914 296.776,208.029 296.963 C 208.303 297.407,221.267 297.407,221.541 296.963 C 221.657 296.776,223.331 296.502,225.261 296.354 C 229.311 296.044,236.270 294.925,236.563 294.537 C 236.673 294.392,238.202 293.944,239.960 293.543 C 241.718 293.141,243.876 292.497,244.755 292.111 C 245.634 291.725,247.073 291.187,247.952 290.915 C 248.831 290.643,249.910 290.204,250.350 289.939 C 250.789 289.674,252.183 289.044,253.447 288.538 C 254.710 288.033,255.744 287.496,255.744 287.345 C 255.744 287.194,256.626 286.754,257.704 286.366 C 258.782 285.978,259.979 285.314,260.364 284.889 C 260.748 284.464,261.260 284.115,261.500 284.115 C 261.943 284.114,265.982 281.558,267.627 280.238 C 268.119 279.843,269.609 278.711,270.937 277.722 C 274.040 275.412,282.538 267.076,285.119 263.811 C 286.216 262.423,287.517 260.805,288.011 260.214 C 288.506 259.624,288.910 258.926,288.911 258.664 C 288.911 258.402,289.233 257.952,289.627 257.665 C 290.021 257.378,291.228 255.614,292.309 253.746 C 293.391 251.878,294.419 250.289,294.593 250.216 C 294.767 250.142,294.808 249.917,294.684 249.716 C 294.560 249.515,294.649 249.351,294.882 249.351 C 295.114 249.351,295.305 249.126,295.306 248.851 C 295.306 248.576,296.025 246.956,296.904 245.249 C 297.783 243.543,298.501 241.922,298.501 241.647 C 298.501 241.372,298.834 240.520,299.239 239.754 C 299.645 238.988,300.290 237.283,300.671 235.964 C 301.053 234.645,301.546 233.228,301.768 232.814 C 302.948 230.611,305.124 218.545,305.520 212.008 L 305.799 207.393 285.227 207.393 L 264.655 207.393 264.397 210.889 " stroke="none" fill="#f0ca3d" fill-rule="evenodd"></path><path id="path1" d="M191.305 107.330 C 191.175 107.460,189.320 107.999,187.183 108.529 C 185.046 109.058,183.100 109.648,182.858 109.839 C 182.616 110.031,181.024 110.597,179.321 111.096 C 177.617 111.596,176.224 112.139,176.224 112.303 C 176.224 112.467,175.730 112.725,175.126 112.876 C 173.542 113.274,162.312 118.892,161.838 119.523 C 161.728 119.670,161.080 120.125,160.398 120.534 C 159.715 120.944,158.187 121.949,157.001 122.768 C 155.815 123.587,154.396 124.567,153.846 124.947 C 152.587 125.816,147.995 129.670,146.592 131.036 C 146.009 131.604,144.346 133.222,142.896 134.633 C 140.330 137.130,139.681 138.262,140.816 138.262 C 141.123 138.262,141.477 138.532,141.603 138.862 C 141.730 139.192,142.468 139.764,143.243 140.134 L 144.653 140.806 146.754 138.635 C 147.910 137.441,149.912 135.564,151.203 134.466 C 152.494 133.367,153.953 132.063,154.444 131.568 C 154.935 131.074,155.497 130.669,155.694 130.669 C 155.891 130.669,156.513 130.242,157.076 129.720 C 158.366 128.524,165.042 124.091,167.203 122.996 C 168.098 122.542,168.922 122.031,169.032 121.861 C 169.143 121.690,170.042 121.237,171.030 120.853 C 172.019 120.470,173.109 119.915,173.454 119.622 C 173.799 119.328,175.129 118.727,176.408 118.287 C 177.687 117.847,178.934 117.325,179.177 117.128 C 179.792 116.630,185.588 114.787,190.609 113.492 L 194.805 112.411 194.701 110.651 C 194.530 107.750,192.687 105.948,191.305 107.330 M167.263 128.151 C 166.621 128.491,165.901 128.925,165.665 129.114 C 165.428 129.303,163.976 130.294,162.438 131.315 C 160.899 132.336,159.319 133.507,158.925 133.918 C 158.532 134.329,158.083 134.668,157.926 134.672 C 157.672 134.679,155.799 136.351,151.178 140.699 C 148.377 143.335,143.852 148.399,142.184 150.766 C 141.687 151.471,140.990 152.366,140.634 152.754 C 140.279 153.142,139.734 153.952,139.425 154.552 C 139.115 155.153,138.632 155.886,138.352 156.182 C 138.072 156.477,137.553 157.286,137.198 157.980 C 136.842 158.673,136.430 159.331,136.280 159.441 C 136.131 159.550,135.584 160.539,135.065 161.638 C 134.546 162.737,133.988 163.728,133.826 163.840 C 133.663 163.952,133.142 165.029,132.667 166.234 C 132.193 167.438,131.665 168.516,131.496 168.628 C 131.326 168.740,130.775 170.090,130.270 171.628 C 129.765 173.167,129.235 174.515,129.091 174.625 C 128.948 174.735,128.459 176.117,128.005 177.696 C 127.097 180.854,127.266 181.419,129.118 181.419 C 129.715 181.419,130.263 181.562,130.336 181.736 C 130.410 181.911,132.807 182.534,135.664 183.121 C 138.521 183.708,143.107 184.651,145.854 185.217 C 148.601 185.783,151.209 186.404,151.648 186.596 C 152.088 186.789,154.605 187.336,157.243 187.812 C 159.880 188.288,162.398 188.832,162.837 189.021 C 166.276 190.497,167.922 190.210,168.633 188.012 C 169.164 186.370,172.111 180.577,172.597 180.220 C 172.747 180.110,173.282 179.342,173.785 178.513 C 174.980 176.547,175.803 175.590,179.476 171.899 C 182.722 168.637,183.491 167.985,187.113 165.420 C 189.887 163.455,189.961 164.359,186.548 158.533 C 184.974 155.845,182.663 151.848,181.412 149.650 C 178.931 145.288,177.571 142.932,174.031 136.863 C 172.749 134.665,171.087 131.788,170.337 130.470 C 168.583 127.385,168.635 127.425,167.263 128.151 M257.501 131.769 C 254.233 137.525,249.479 145.765,241.710 159.141 C 240.211 161.723,239.134 163.836,239.318 163.836 C 239.635 163.836,243.260 166.187,245.306 167.719 C 249.296 170.708,256.128 178.709,257.770 182.318 C 258.045 182.922,258.421 183.417,258.606 183.417 C 258.790 183.417,258.941 183.592,258.941 183.807 C 258.941 184.022,259.556 185.513,260.308 187.119 C 261.502 189.668,262.223 191.909,263.749 197.802 C 263.948 198.571,264.233 201.044,264.382 203.297 L 264.653 207.393 285.174 207.393 L 305.694 207.393 305.690 204.296 C 305.685 200.371,304.971 192.104,304.457 190.010 C 304.241 189.131,303.734 186.883,303.331 185.015 C 302.601 181.634,299.907 173.189,299.316 172.428 C 299.145 172.208,298.776 171.309,298.496 170.430 C 297.579 167.550,291.801 156.900,289.826 154.446 C 289.649 154.226,289.165 153.506,288.750 152.847 C 288.336 152.188,287.708 151.340,287.355 150.963 C 287.002 150.586,285.994 149.354,285.115 148.225 C 281.980 144.198,272.937 135.475,270.890 134.504 C 270.472 134.306,270.130 133.994,270.130 133.810 C 270.130 133.627,269.456 133.028,268.631 132.480 C 267.807 131.931,265.784 130.584,264.136 129.485 C 260.175 126.845,260.327 126.792,257.501 131.769 M309.485 221.479 C 309.329 222.852,309.071 224.156,308.912 224.376 C 308.753 224.595,308.209 226.843,307.703 229.371 C 307.198 231.898,306.647 234.146,306.481 234.366 C 306.314 234.585,305.795 236.010,305.328 237.531 C 304.861 239.053,304.326 240.491,304.140 240.728 C 303.953 240.965,303.571 241.878,303.290 242.757 C 302.152 246.323,295.948 257.890,294.219 259.669 C 293.937 259.959,293.706 260.338,293.706 260.510 C 293.706 260.682,293.284 261.278,292.767 261.836 C 292.250 262.393,291.421 263.507,290.925 264.310 C 289.813 266.109,289.365 266.607,282.798 273.346 C 279.897 276.324,276.848 279.290,276.024 279.937 C 274.215 281.359,274.193 281.602,275.724 283.317 C 276.384 284.055,276.923 284.807,276.923 284.987 C 276.923 286.970,291.105 274.302,293.586 270.103 C 293.967 269.459,294.397 268.931,294.543 268.931 C 294.769 268.931,298.680 263.436,299.900 261.404 C 300.120 261.039,300.822 259.930,301.460 258.941 C 303.090 256.414,307.506 247.737,308.100 245.893 C 308.373 245.048,308.748 244.162,308.935 243.925 C 309.121 243.688,309.649 242.250,310.107 240.728 C 310.565 239.207,311.181 237.423,311.474 236.763 C 311.768 236.104,312.308 234.126,312.675 232.368 C 313.042 230.609,313.506 228.811,313.706 228.372 C 314.219 227.241,315.342 219.797,315.067 219.351 C 314.941 219.148,313.697 218.981,312.303 218.981 L 309.769 218.981 309.485 221.479 " stroke="none" fill="#d4ac04" fill-rule="evenodd"></path><path id="path2" d="M208.445 9.471 C 208.401 9.515,206.393 9.654,203.983 9.781 C 196.156 10.193,189.204 10.808,186.014 11.369 C 185.574 11.447,182.787 11.896,179.820 12.367 C 176.853 12.838,174.104 13.401,173.710 13.618 C 173.316 13.835,172.813 13.901,172.592 13.764 C 172.371 13.628,171.883 13.654,171.509 13.823 C 171.135 13.992,169.031 14.545,166.833 15.051 C 164.635 15.558,162.567 16.059,162.238 16.166 C 161.908 16.272,159.840 16.836,157.642 17.419 C 155.445 18.003,153.556 18.610,153.447 18.769 C 153.337 18.928,152.707 19.182,152.048 19.333 C 149.932 19.819,146.466 20.901,146.054 21.205 C 145.834 21.368,144.866 21.711,143.903 21.969 C 142.940 22.226,141.231 22.850,140.107 23.356 C 133.091 26.507,131.517 27.173,131.080 27.173 C 130.812 27.173,130.116 27.501,129.532 27.902 C 128.949 28.303,127.845 28.882,127.078 29.189 C 126.312 29.495,123.580 30.875,121.006 32.255 C 118.432 33.636,116.137 34.765,115.906 34.765 C 115.674 34.765,115.485 34.909,115.485 35.085 C 115.485 35.261,114.720 35.802,113.786 36.286 C 111.858 37.287,109.387 38.766,106.485 40.657 C 105.391 41.370,104.361 41.954,104.196 41.956 C 104.031 41.957,103.581 42.237,103.197 42.578 C 102.259 43.409,97.548 46.753,97.316 46.753 C 97.214 46.753,96.720 47.124,96.218 47.576 C 95.716 48.029,94.021 49.332,92.451 50.473 C 84.661 56.136,70.849 68.984,64.016 76.925 C 63.071 78.023,62.054 79.191,61.756 79.520 C 61.271 80.058,57.600 84.641,54.630 88.421 C 51.734 92.104,47.952 97.756,47.952 98.400 C 47.952 98.932,49.508 99.900,50.363 99.900 C 50.570 99.900,51.220 99.136,51.807 98.202 C 53.235 95.931,58.047 89.439,60.313 86.727 C 61.317 85.526,62.408 84.207,62.737 83.796 C 66.132 79.567,68.974 76.504,75.325 70.228 C 79.061 66.535,82.478 63.188,82.917 62.790 C 84.780 61.100,89.563 57.095,92.907 54.425 C 94.885 52.846,96.683 51.408,96.903 51.231 C 97.123 51.054,97.572 50.780,97.902 50.622 C 98.232 50.465,99.221 49.797,100.100 49.138 C 102.126 47.621,110.585 41.958,110.826 41.958 C 110.926 41.958,112.227 41.217,113.717 40.312 C 115.208 39.406,117.249 38.210,118.254 37.654 C 119.258 37.097,120.170 36.533,120.280 36.399 C 120.390 36.265,121.469 35.708,122.677 35.161 C 123.886 34.613,126.044 33.532,127.473 32.756 C 128.901 31.981,130.969 31.016,132.068 30.610 C 133.167 30.205,134.491 29.608,135.011 29.283 C 135.531 28.958,137.218 28.263,138.759 27.739 C 140.300 27.215,141.763 26.627,142.009 26.433 C 142.256 26.239,143.447 25.764,144.655 25.378 C 145.864 24.993,147.010 24.533,147.202 24.358 C 147.393 24.182,147.798 24.134,148.101 24.250 C 148.404 24.366,148.651 24.281,148.651 24.062 C 148.651 23.842,149.955 23.349,151.548 22.965 C 153.142 22.582,154.660 22.100,154.922 21.893 C 155.317 21.583,157.488 20.973,161.039 20.176 C 161.369 20.102,161.638 20.014,161.638 19.980 C 161.638 19.907,161.803 19.860,166.434 18.601 C 168.412 18.064,170.604 17.615,171.305 17.603 C 172.006 17.592,172.681 17.419,172.805 17.218 C 172.929 17.018,173.344 16.905,173.728 16.967 C 174.112 17.028,174.708 16.933,175.054 16.755 C 175.400 16.577,178.277 16.063,181.448 15.613 C 184.619 15.163,187.662 14.696,188.212 14.574 C 189.392 14.313,195.061 13.731,199.687 13.396 C 209.737 12.669,233.515 13.398,238.561 14.589 C 239.111 14.718,241.456 15.083,243.773 15.399 C 246.090 15.715,248.967 16.168,250.167 16.406 C 251.366 16.644,252.707 16.906,253.147 16.988 C 253.586 17.071,255.738 17.506,257.928 17.954 C 262.281 18.846,262.659 18.745,262.467 16.734 L 262.338 15.385 258.941 14.658 C 257.073 14.258,252.488 13.412,248.751 12.777 C 245.015 12.142,241.508 11.518,240.959 11.390 C 237.273 10.531,209.048 8.865,208.445 9.471 M303.802 31.894 C 302.002 33.038,302.756 34.537,305.955 36.170 C 307.671 37.046,309.951 38.347,311.021 39.061 C 312.092 39.775,313.219 40.360,313.527 40.360 C 313.834 40.360,314.086 40.527,314.086 40.732 C 314.086 40.937,314.411 41.208,314.809 41.335 C 316.013 41.717,326.459 48.606,328.204 50.169 C 328.461 50.399,329.570 51.196,330.669 51.941 C 331.768 52.685,332.757 53.400,332.867 53.530 C 333.355 54.108,336.513 56.425,336.631 56.292 C 336.703 56.210,337.059 55.558,337.423 54.843 L 338.085 53.542 336.610 52.246 C 335.210 51.014,334.294 50.321,328.671 46.239 C 326.119 44.386,317.487 38.711,316.484 38.226 C 316.154 38.067,314.895 37.320,313.686 36.566 C 312.478 35.812,310.589 34.740,309.491 34.183 C 308.392 33.627,306.953 32.824,306.294 32.399 C 304.945 31.531,304.513 31.443,303.802 31.894 M36.232 162.960 C 35.857 164.431,35.538 165.904,35.522 166.234 C 35.506 166.563,35.249 167.642,34.951 168.631 C 34.653 169.620,34.306 171.149,34.180 172.028 C 34.055 172.907,33.752 174.705,33.508 176.024 C 33.264 177.343,33.016 178.808,32.956 179.281 C 32.896 179.754,32.747 180.473,32.626 180.879 C 32.418 181.577,31.486 190.999,30.933 198.002 C 30.618 201.999,30.617 213.396,30.933 217.383 C 31.825 228.654,32.041 231.053,32.376 233.367 C 32.584 234.795,32.841 236.414,32.949 236.963 C 33.142 237.943,34.054 243.199,34.579 246.354 C 34.725 247.233,34.957 248.132,35.094 248.352 C 35.231 248.571,35.359 248.931,35.377 249.151 C 35.395 249.371,35.518 249.820,35.649 250.150 C 36.029 251.106,37.165 256.275,37.164 257.043 C 37.163 257.428,37.337 257.742,37.550 257.742 C 37.763 257.742,37.833 258.012,37.707 258.342 C 37.580 258.671,37.653 258.941,37.868 258.941 C 38.195 258.941,38.409 259.711,38.781 262.226 C 38.805 262.385,39.274 263.734,39.824 265.223 C 40.374 266.713,41.056 268.651,41.340 269.530 C 41.809 270.981,43.581 275.384,45.361 279.520 C 46.744 282.733,46.880 283.127,46.791 283.656 C 46.741 283.953,46.892 284.078,47.126 283.933 C 47.361 283.788,47.552 283.843,47.552 284.055 C 47.552 285.035,53.123 295.890,56.197 300.899 C 57.073 302.328,58.049 303.937,58.366 304.475 C 58.682 305.013,59.079 305.643,59.248 305.874 C 59.417 306.105,60.352 307.552,61.326 309.091 C 62.300 310.629,63.466 312.254,63.916 312.701 C 64.367 313.149,64.739 313.688,64.743 313.900 C 64.750 314.245,67.080 317.407,69.740 320.679 C 74.432 326.454,76.869 329.303,78.249 330.626 L 79.870 332.181 84.669 327.629 C 95.862 317.011,107.016 306.279,107.051 306.094 C 107.072 305.984,106.429 305.175,105.621 304.296 C 97.589 295.549,88.359 281.654,83.323 270.729 C 82.513 268.971,81.515 266.813,81.106 265.934 C 78.785 260.943,74.116 246.899,73.734 243.756 C 73.667 243.207,73.151 240.509,72.585 237.762 C 68.432 217.570,68.636 195.728,73.154 176.680 C 73.799 173.964,74.326 171.619,74.326 171.468 C 74.326 171.143,71.485 170.171,66.533 168.803 C 62.959 167.815,58.195 166.465,50.549 164.272 C 48.352 163.642,44.518 162.570,42.031 161.890 C 39.544 161.210,37.375 160.571,37.211 160.469 C 37.047 160.368,36.606 161.489,36.232 162.960 M52.685 188.405 C 52.677 189.508,52.555 190.589,52.414 190.809 C 52.274 191.029,52.115 192.198,52.061 193.407 C 52.008 194.615,51.849 196.683,51.709 198.002 C 51.355 201.343,51.319 217.091,51.659 219.901 C 51.857 221.534,51.811 222.140,51.504 221.951 C 51.217 221.773,51.229 221.981,51.540 222.562 C 51.799 223.046,52.064 224.282,52.128 225.308 C 52.192 226.334,52.377 227.488,52.539 227.872 C 52.700 228.257,52.731 228.835,52.608 229.158 C 52.484 229.481,52.516 229.827,52.680 229.928 C 52.959 230.101,53.148 231.860,53.287 235.564 C 53.320 236.444,53.509 237.281,53.708 237.424 C 53.907 237.568,54.054 238.240,54.035 238.916 C 54.016 239.592,54.160 240.245,54.355 240.365 C 54.550 240.486,54.608 240.851,54.483 241.177 C 54.358 241.502,54.478 242.036,54.749 242.363 C 55.021 242.690,55.143 242.957,55.022 242.957 C 54.900 242.957,54.976 243.541,55.189 244.256 C 55.403 244.970,55.642 246.006,55.720 246.557 C 55.798 247.109,56.092 248.368,56.375 249.355 C 57.004 251.557,56.962 251.421,57.250 252.148 C 57.727 253.350,58.849 257.559,58.848 258.142 C 58.848 258.472,59.071 259.011,59.344 259.341 C 59.617 259.670,60.075 260.929,60.363 262.138 C 60.650 263.347,61.032 264.506,61.212 264.715 C 61.391 264.924,61.538 265.419,61.538 265.814 C 61.538 266.210,61.713 266.533,61.926 266.533 C 62.138 266.533,62.209 266.803,62.083 267.133 C 61.956 267.463,62.022 267.732,62.228 267.732 C 62.435 267.732,62.608 267.957,62.613 268.232 C 62.618 268.506,62.946 269.451,63.343 270.330 C 63.739 271.209,64.096 272.018,64.136 272.128 C 64.176 272.238,64.540 273.047,64.946 273.926 C 65.351 274.805,65.655 275.642,65.621 275.786 C 65.588 275.930,65.824 276.266,66.147 276.534 C 66.469 276.802,66.733 277.429,66.733 277.928 C 66.733 278.427,67.003 278.939,67.333 279.066 C 67.662 279.192,67.943 279.616,67.956 280.007 C 67.969 280.399,68.409 281.528,68.934 282.517 C 69.459 283.506,70.089 284.762,70.334 285.307 C 70.579 285.852,70.903 286.391,71.054 286.506 C 71.323 286.710,72.423 288.628,73.289 290.406 C 73.530 290.899,73.847 291.304,73.994 291.306 C 74.142 291.307,74.381 291.848,74.525 292.507 C 74.673 293.181,75.048 293.706,75.380 293.706 C 75.705 293.706,75.860 293.886,75.724 294.106 C 75.588 294.326,75.623 294.508,75.801 294.510 C 75.978 294.513,76.467 295.232,76.887 296.108 C 77.307 296.985,77.790 297.702,77.959 297.702 C 78.129 297.702,78.373 298.034,78.502 298.439 C 78.630 298.844,79.446 300.128,80.315 301.293 C 81.702 303.151,82.123 304.517,81.119 303.896 C 80.929 303.779,80.644 303.894,80.485 304.151 C 80.305 304.443,80.369 304.512,80.658 304.334 C 80.911 304.177,81.119 304.210,81.119 304.408 C 81.119 305.452,79.099 305.684,78.647 304.691 C 78.397 304.144,78.042 303.696,77.858 303.696 C 77.673 303.696,77.522 303.427,77.522 303.097 C 77.522 302.767,77.355 302.498,77.150 302.498 C 76.945 302.498,76.677 302.183,76.555 301.798 C 76.433 301.414,75.920 300.649,75.415 300.100 C 74.911 299.550,74.193 298.451,73.820 297.657 C 73.447 296.864,72.879 295.996,72.559 295.730 C 72.238 295.464,72.074 294.990,72.194 294.676 C 72.330 294.323,72.160 294.106,71.747 294.106 C 71.381 294.106,71.180 293.946,71.301 293.752 C 71.421 293.557,71.254 293.177,70.929 292.907 C 70.604 292.638,70.425 292.276,70.532 292.104 C 70.638 291.933,70.445 291.685,70.102 291.553 C 69.760 291.422,69.579 291.154,69.701 290.957 C 69.822 290.761,69.654 290.378,69.326 290.106 C 68.999 289.835,68.731 289.387,68.731 289.111 C 68.731 288.835,68.464 288.387,68.136 288.116 C 67.809 287.844,67.640 287.462,67.760 287.267 C 67.881 287.073,67.808 286.913,67.599 286.913 C 67.390 286.913,67.115 286.495,66.987 285.985 C 66.858 285.474,66.305 284.395,65.756 283.587 C 65.208 282.779,64.859 282.118,64.980 282.118 C 65.101 282.118,64.811 281.489,64.336 280.719 C 63.860 279.950,63.588 279.321,63.731 279.321 C 63.874 279.321,63.651 278.826,63.237 278.222 C 62.500 277.148,61.321 273.823,61.466 273.227 C 61.506 273.062,61.380 272.927,61.187 272.927 C 60.994 272.927,60.616 272.343,60.348 271.628 C 60.079 270.914,59.701 269.970,59.508 269.530 C 59.179 268.780,58.291 266.575,58.141 266.134 C 58.103 266.024,57.964 265.664,57.831 265.335 C 57.235 263.859,56.344 260.858,56.344 260.326 C 56.344 260.004,56.164 259.740,55.944 259.740 C 55.724 259.740,55.566 259.605,55.592 259.441 C 55.618 259.276,55.604 259.051,55.561 258.941 C 55.518 258.831,55.419 258.472,55.340 258.142 C 55.261 257.812,55.018 256.958,54.799 256.244 C 54.580 255.529,54.524 254.942,54.673 254.939 C 54.823 254.936,54.725 254.793,54.457 254.622 C 54.188 254.452,53.863 253.600,53.734 252.730 C 53.605 251.861,53.386 250.789,53.248 250.350 C 52.831 249.027,52.684 248.387,52.629 247.652 C 52.600 247.268,52.405 246.953,52.195 246.953 C 51.986 246.953,51.914 246.854,52.034 246.734 C 52.155 246.613,52.075 245.759,51.856 244.835 C 51.637 243.912,51.402 242.797,51.334 242.358 C 51.266 241.918,50.950 240.351,50.632 238.876 C 50.314 237.400,50.146 236.101,50.259 235.988 C 50.371 235.876,50.213 235.475,49.907 235.098 C 49.539 234.644,49.520 234.514,49.850 234.712 C 50.125 234.877,50.350 234.822,50.350 234.589 C 50.350 234.356,50.149 234.166,49.905 234.166 C 49.638 234.166,49.530 233.687,49.636 232.967 C 49.732 232.308,49.693 231.768,49.548 231.768 C 49.403 231.768,49.270 231.543,49.253 231.269 C 49.096 228.709,48.679 224.644,48.519 224.110 C 48.409 223.743,48.506 223.328,48.735 223.187 C 48.964 223.046,49.148 222.716,49.145 222.454 C 49.141 222.168,48.984 222.217,48.751 222.577 C 48.333 223.225,48.256 222.715,48.179 218.781 C 48.157 217.682,48.031 216.603,47.899 216.384 C 47.701 216.055,47.731 201.598,47.929 201.598 C 47.963 201.598,48.077 199.620,48.182 197.203 C 48.396 192.256,48.448 191.811,48.886 191.109 C 49.076 190.805,48.993 190.607,48.675 190.603 C 48.295 190.599,48.316 190.491,48.751 190.210 C 49.081 189.997,49.205 189.820,49.027 189.816 C 48.850 189.813,48.835 189.598,48.995 189.339 C 49.156 189.080,49.303 188.173,49.324 187.323 C 49.370 185.396,50.083 184.899,51.573 185.754 C 52.578 186.331,52.698 186.619,52.685 188.405 M14.755 197.879 C 14.738 198.386,14.647 199.161,14.552 199.600 C 13.749 203.329,15.222 234.099,16.346 237.067 C 16.532 237.559,16.894 239.491,17.150 241.359 C 17.811 246.181,20.036 257.124,20.643 258.541 C 20.965 259.293,20.972 259.316,21.933 262.937 C 23.420 268.539,27.467 280.299,28.735 282.702 C 29.195 283.573,29.570 284.491,29.570 284.744 C 29.570 285.736,36.090 299.216,39.413 305.095 C 40.158 306.414,41.039 308.032,41.370 308.691 C 41.701 309.351,42.672 310.969,43.526 312.288 C 45.290 315.011,48.353 319.839,48.951 320.839 C 49.171 321.207,49.753 321.937,50.245 322.462 C 50.737 322.988,51.244 323.746,51.371 324.146 C 51.498 324.547,51.765 324.875,51.965 324.875 C 52.164 324.875,52.591 325.384,52.912 326.007 C 53.234 326.629,54.093 327.868,54.821 328.760 C 55.548 329.652,56.593 330.972,57.143 331.692 C 57.692 332.413,58.546 333.430,59.041 333.952 C 59.535 334.474,59.940 335.026,59.940 335.179 C 59.940 335.331,60.377 335.907,60.911 336.459 C 61.444 337.011,63.827 339.616,66.205 342.248 C 70.459 346.955,76.580 353.033,81.343 357.281 C 86.237 361.645,87.180 362.432,88.333 363.113 C 88.981 363.496,89.510 363.941,89.510 364.103 C 89.510 364.265,90.275 364.926,91.209 365.573 C 92.143 366.220,93.333 367.122,93.854 367.578 C 94.374 368.035,95.139 368.515,95.552 368.646 C 95.965 368.778,96.304 369.035,96.304 369.218 C 96.304 369.401,96.888 369.913,97.602 370.356 C 99.024 371.236,104.651 375.037,105.301 375.556 C 107.245 377.109,109.583 378.099,110.077 377.578 C 111.427 376.154,111.219 375.307,109.213 374.062 C 108.157 373.406,106.933 372.580,106.494 372.227 C 106.054 371.873,104.346 370.690,102.697 369.598 C 101.049 368.506,99.071 367.192,98.302 366.680 C 96.304 365.348,91.503 361.456,84.316 355.340 C 81.325 352.795,68.107 339.568,65.911 336.923 C 64.935 335.747,63.776 334.382,63.337 333.890 C 62.200 332.616,60.446 330.398,55.544 324.040 C 54.211 322.310,47.552 312.458,47.552 312.215 C 47.552 312.110,46.952 311.094,46.218 309.958 C 45.484 308.822,44.471 307.173,43.966 306.294 C 43.461 305.415,42.686 304.066,42.244 303.297 C 39.962 299.326,34.366 287.784,34.366 287.047 C 34.366 286.753,34.227 286.513,34.057 286.513 C 33.887 286.513,33.310 285.210,32.775 283.616 C 32.240 282.023,31.677 280.629,31.524 280.519 C 31.215 280.297,29.206 274.745,27.765 270.130 C 27.251 268.482,26.640 266.593,26.409 265.934 C 24.874 261.558,22.213 251.363,21.820 248.352 C 21.763 247.912,21.606 247.283,21.471 246.953 C 21.337 246.623,20.851 243.746,20.393 240.559 C 19.934 237.373,19.477 234.226,19.376 233.566 C 18.190 225.810,17.596 212.032,17.971 200.999 L 18.100 197.203 16.443 197.080 C 14.950 196.969,14.782 197.048,14.755 197.879 " stroke="none" fill="#545454" fill-rule="evenodd"></path><path id="path3" d="M202.997 25.974 C 202.997 26.448,203.691 26.448,204.795 25.974 C 205.465 25.686,205.384 25.626,204.296 25.603 C 203.581 25.587,202.997 25.754,202.997 25.974 M220.180 25.974 C 221.623 26.436,222.663 26.436,222.378 25.974 C 222.242 25.754,221.467 25.592,220.656 25.614 C 219.331 25.650,219.282 25.687,220.180 25.974 M163.836 32.285 C 162.408 32.602,161.149 32.991,161.039 33.148 C 160.929 33.306,159.224 33.836,157.250 34.327 C 155.275 34.817,153.567 35.344,153.453 35.498 C 153.340 35.651,151.898 36.199,150.250 36.716 C 148.601 37.233,147.073 37.791,146.853 37.957 C 146.633 38.122,145.734 38.481,144.855 38.755 C 143.976 39.029,142.268 39.736,141.059 40.327 C 139.850 40.918,138.097 41.646,137.163 41.944 C 136.229 42.242,135.465 42.604,135.465 42.748 C 135.465 42.892,134.431 43.437,133.167 43.959 C 131.903 44.481,130.632 45.144,130.341 45.431 C 130.051 45.719,129.625 45.954,129.395 45.954 C 128.842 45.954,118.307 51.755,117.882 52.294 C 117.772 52.433,116.873 52.988,115.884 53.527 C 114.895 54.065,113.737 54.829,113.311 55.225 C 112.885 55.620,112.335 55.944,112.088 55.944 C 111.841 55.944,111.291 56.264,110.865 56.656 C 110.439 57.048,109.371 57.804,108.492 58.338 C 107.612 58.871,106.713 59.507,106.494 59.752 C 106.274 59.996,105.587 60.510,104.968 60.894 C 104.349 61.278,103.540 61.853,103.170 62.172 C 102.800 62.492,100.340 64.484,97.702 66.599 C 88.761 73.770,78.566 83.966,71.394 92.907 C 69.279 95.544,67.287 98.005,66.968 98.375 C 66.648 98.745,66.073 99.554,65.689 100.173 C 65.305 100.792,64.791 101.479,64.547 101.698 C 64.302 101.918,63.666 102.817,63.133 103.696 C 62.600 104.575,61.843 105.643,61.451 106.069 C 61.060 106.495,60.739 107.046,60.739 107.293 C 60.739 107.539,60.416 108.090,60.020 108.516 C 59.624 108.942,58.860 110.100,58.322 111.089 C 57.783 112.078,57.229 112.977,57.089 113.087 C 56.557 113.507,51.195 123.226,50.678 124.707 C 50.455 125.349,50.149 125.874,49.999 125.874 C 49.849 125.874,49.377 126.773,48.951 127.872 C 48.525 128.971,48.050 129.870,47.896 129.870 C 47.742 129.870,47.310 130.814,46.936 131.968 C 46.562 133.122,45.941 134.605,45.557 135.265 C 45.174 135.924,44.535 137.363,44.139 138.462 C 43.743 139.560,43.294 140.639,43.141 140.859 C 42.989 141.079,42.456 142.517,41.958 144.056 C 41.460 145.594,40.914 147.033,40.745 147.253 C 40.575 147.473,40.025 149.181,39.521 151.049 C 39.017 152.917,38.490 154.535,38.350 154.645 C 38.112 154.831,36.715 159.985,36.885 160.045 C 36.928 160.061,38.132 160.383,39.560 160.762 C 40.989 161.142,44.406 162.091,47.153 162.871 C 49.900 163.652,53.946 164.800,56.144 165.422 C 58.342 166.043,62.478 167.218,65.335 168.031 C 68.192 168.844,71.363 169.740,72.381 170.021 L 74.232 170.532 76.489 163.688 C 91.523 118.088,130.059 80.916,174.081 69.551 L 175.734 69.124 171.765 53.443 C 169.582 44.819,167.489 36.400,167.115 34.735 L 166.434 31.708 163.836 32.285 M221.379 64.735 C 221.708 64.948,222.428 65.113,222.977 65.101 C 223.892 65.081,223.909 65.050,223.177 64.735 C 221.994 64.227,220.592 64.227,221.379 64.735 M51.489 186.132 C 51.864 186.395,51.985 187.190,51.888 188.741 C 51.811 189.968,51.893 190.826,52.071 190.648 C 52.649 190.068,52.210 186.094,51.548 185.915 C 51.066 185.785,51.054 185.827,51.489 186.132 M51.641 194.206 C 51.641 194.975,51.723 195.290,51.824 194.905 C 51.924 194.520,51.924 193.891,51.824 193.506 C 51.723 193.122,51.641 193.437,51.641 194.206 M48.444 199.800 C 48.444 200.569,48.527 200.884,48.627 200.500 C 48.728 200.115,48.728 199.486,48.627 199.101 C 48.527 198.716,48.444 199.031,48.444 199.800 M48.049 207.403 L 48.079 213.586 48.344 207.992 C 48.490 204.915,48.477 202.132,48.315 201.808 C 48.152 201.484,48.033 204.002,48.049 207.403 M50.858 205.395 C 50.858 206.384,50.936 206.788,51.031 206.294 C 51.127 205.799,51.127 204.990,51.031 204.496 C 50.936 204.001,50.858 204.406,50.858 205.395 M50.842 214.585 C 50.842 215.355,50.924 215.669,51.025 215.285 C 51.125 214.900,51.125 214.271,51.025 213.886 C 50.924 213.501,50.842 213.816,50.842 214.585 M48.175 216.003 C 48.502 219.094,48.858 219.454,48.639 216.471 C 48.546 215.206,48.347 214.048,48.197 213.898 C 48.047 213.748,48.037 214.695,48.175 216.003 M14.073 216.583 C 14.069 217.133,14.210 218.032,14.386 218.581 C 14.816 219.924,14.816 218.474,14.386 216.783 C 14.112 215.706,14.080 215.686,14.073 216.583 M51.548 226.573 C 51.548 227.453,51.688 228.172,51.859 228.172 C 52.029 228.172,52.100 227.453,52.017 226.573 C 51.933 225.694,51.793 224.975,51.706 224.975 C 51.619 224.975,51.548 225.694,51.548 226.573 M49.131 227.883 C 49.326 229.529,49.334 229.537,49.470 228.221 C 49.546 227.479,49.456 226.719,49.270 226.533 C 49.084 226.347,49.022 226.954,49.131 227.883 M51.954 229.804 C 51.958 230.554,52.140 231.439,52.359 231.768 C 52.638 232.187,52.680 231.826,52.498 230.569 C 52.173 228.331,51.946 228.012,51.954 229.804 M50.356 235.997 C 50.359 236.638,50.534 237.433,50.744 237.762 C 51.004 238.170,51.048 237.852,50.881 236.763 C 50.578 234.788,50.348 234.452,50.356 235.997 M54.195 242.557 C 54.323 243.546,54.602 244.535,54.815 244.755 C 55.204 245.157,54.977 243.862,54.289 241.758 C 54.073 241.096,54.041 241.366,54.195 242.557 M52.460 246.625 C 52.592 246.994,52.821 247.940,52.969 248.727 C 53.117 249.515,53.381 250.247,53.556 250.356 C 53.937 250.591,52.925 246.584,52.509 246.212 C 52.350 246.070,52.328 246.256,52.460 246.625 M56.649 252.765 C 56.753 253.311,56.971 253.840,57.133 253.940 C 57.295 254.040,57.342 253.675,57.237 253.129 C 57.133 252.583,56.915 252.054,56.753 251.954 C 56.591 251.854,56.545 252.219,56.649 252.765 M54.808 255.145 C 54.807 255.365,55.048 256.174,55.345 256.943 C 55.641 257.712,55.889 258.072,55.896 257.742 C 55.902 257.413,55.661 256.603,55.359 255.944 C 55.057 255.285,54.809 254.925,54.808 255.145 M58.943 260.190 C 59.358 261.560,59.876 261.985,59.643 260.764 C 59.534 260.194,59.267 259.619,59.050 259.485 C 58.805 259.333,58.764 259.599,58.943 260.190 M57.188 262.737 C 57.196 262.957,57.548 263.856,57.971 264.735 C 58.394 265.614,58.628 265.884,58.491 265.335 C 58.209 264.203,57.168 262.126,57.188 262.737 M61.170 266.157 C 61.153 266.500,61.419 267.129,61.760 267.556 C 62.372 268.319,62.376 268.319,62.014 267.532 C 61.812 267.093,61.546 266.464,61.424 266.134 C 61.232 265.616,61.198 265.619,61.170 266.157 M59.940 270.253 C 59.940 270.541,60.207 271.125,60.534 271.552 C 61.077 272.262,61.091 272.217,60.695 271.029 C 60.242 269.673,59.940 269.362,59.940 270.253 M62.616 276.319 C 62.981 277.085,63.351 277.641,63.438 277.555 C 63.621 277.372,62.407 274.925,62.134 274.925 C 62.033 274.925,62.250 275.552,62.616 276.319 M65.938 277.522 C 65.939 277.742,66.297 278.462,66.733 279.121 C 67.768 280.683,67.769 280.128,66.735 278.431 C 66.296 277.712,65.938 277.303,65.938 277.522 M65.135 281.472 C 65.135 281.901,66.324 284.116,66.554 284.116 C 66.664 284.116,66.457 283.531,66.093 282.817 C 65.352 281.359,65.135 281.054,65.135 281.472 M68.531 282.917 C 68.872 283.576,69.241 284.116,69.351 284.116 C 69.461 284.116,69.272 283.576,68.931 282.917 C 68.590 282.258,68.221 281.718,68.111 281.718 C 68.001 281.718,68.191 282.258,68.531 282.917 M66.740 284.715 C 66.737 285.157,68.699 288.466,68.719 288.053 C 68.726 287.910,68.284 287.011,67.737 286.055 C 67.190 285.098,66.742 284.496,66.740 284.715 M72.498 290.010 C 73.315 291.529,74.719 293.565,74.723 293.233 C 74.726 292.898,72.268 288.911,72.058 288.911 C 71.975 288.911,72.173 289.406,72.498 290.010 M69.960 290.709 C 70.453 291.588,71.029 292.488,71.238 292.707 C 71.837 293.334,70.468 290.803,69.726 289.910 C 69.361 289.471,69.466 289.830,69.960 290.709 M72.343 294.705 C 72.344 294.925,72.713 295.554,73.163 296.104 C 73.705 296.767,73.841 296.835,73.567 296.304 C 72.893 295.000,72.340 294.278,72.343 294.705 M74.725 298.501 C 75.195 299.161,75.669 299.700,75.779 299.700 C 75.889 299.700,75.594 299.161,75.125 298.501 C 74.655 297.842,74.181 297.303,74.071 297.303 C 73.962 297.303,74.256 297.842,74.725 298.501 M78.932 300.200 C 79.757 301.464,80.512 302.498,80.609 302.498 C 80.906 302.498,79.047 299.548,78.216 298.701 C 77.784 298.262,78.107 298.936,78.932 300.200 M76.646 301.499 C 76.896 301.938,77.480 302.747,77.944 303.297 L 78.788 304.296 78.055 302.966 C 77.652 302.235,77.068 301.426,76.758 301.168 C 76.283 300.774,76.265 300.827,76.646 301.499 M320.080 305.979 C 302.850 325.137,278.721 340.034,253.208 347.264 C 250.128 348.137,247.302 348.851,246.927 348.851 C 246.332 348.851,246.542 350.032,248.579 358.142 C 254.890 383.272,255.314 385.215,254.479 385.215 C 254.222 385.215,254.133 385.335,254.280 385.482 C 254.427 385.629,254.951 385.551,255.445 385.309 C 255.939 385.068,258.142 384.458,260.340 383.955 C 262.537 383.452,264.426 382.930,264.535 382.795 C 264.645 382.659,265.981 382.240,267.503 381.862 C 269.026 381.484,271.004 380.844,271.899 380.440 C 272.794 380.036,274.650 379.393,276.024 379.011 C 277.398 378.629,278.521 378.189,278.521 378.033 C 278.521 377.877,279.286 377.526,280.220 377.253 C 281.154 376.980,283.042 376.233,284.417 375.591 C 285.791 374.950,287.037 374.426,287.186 374.426 C 287.527 374.426,297.932 369.203,300.976 367.503 C 302.227 366.805,304.205 365.716,305.371 365.082 C 306.538 364.449,307.582 363.802,307.692 363.644 C 307.802 363.486,308.342 363.126,308.891 362.844 C 309.441 362.563,311.122 361.502,312.627 360.487 C 314.132 359.472,315.653 358.462,316.007 358.242 C 317.081 357.576,323.408 352.986,324.476 352.098 C 325.025 351.642,327.183 349.866,329.271 348.152 C 331.359 346.439,333.578 344.591,334.203 344.047 C 336.380 342.150,346.272 332.195,348.851 329.305 C 350.280 327.704,351.673 326.155,351.948 325.863 C 352.658 325.108,352.599 324.950,351.157 323.750 C 349.889 322.696,347.892 320.952,343.641 317.183 C 342.463 316.139,341.354 315.285,341.176 315.285 C 340.726 315.285,338.462 317.340,338.462 317.748 C 338.462 317.932,337.428 319.129,336.164 320.408 C 334.900 321.688,333.048 323.621,332.048 324.704 C 331.047 325.787,328.638 328.112,326.693 329.870 C 324.748 331.628,322.566 333.606,321.845 334.266 C 321.124 334.925,319.600 336.184,318.457 337.063 C 317.314 337.942,315.908 339.084,315.333 339.601 C 314.757 340.117,313.791 340.796,313.187 341.109 C 312.582 341.423,312.088 341.859,312.088 342.078 C 312.088 342.298,311.683 342.634,311.189 342.825 C 310.694 343.016,309.481 343.819,308.492 344.609 C 307.502 345.399,306.529 346.048,306.327 346.050 C 306.126 346.052,305.676 346.330,305.328 346.667 C 304.373 347.593,299.169 350.831,298.621 350.841 C 298.357 350.845,297.998 351.079,297.822 351.360 C 297.646 351.641,296.712 352.220,295.746 352.646 C 294.779 353.072,293.790 353.610,293.548 353.842 C 292.997 354.367,287.951 356.843,287.431 356.843 C 286.975 356.843,286.072 354.118,286.451 353.887 C 286.595 353.799,288.511 352.785,290.709 351.635 C 292.907 350.484,295.183 349.207,295.766 348.797 C 296.349 348.387,296.990 348.052,297.189 348.052 C 297.388 348.052,297.906 347.737,298.338 347.353 C 298.771 346.968,299.749 346.313,300.511 345.896 C 301.274 345.480,302.258 344.827,302.697 344.445 C 303.137 344.062,304.081 343.454,304.795 343.093 C 305.509 342.732,306.094 342.306,306.094 342.145 C 306.094 341.985,306.588 341.632,307.193 341.362 C 307.797 341.092,308.831 340.402,309.491 339.828 C 310.150 339.255,311.162 338.540,311.740 338.239 C 312.318 337.938,312.896 337.416,313.026 337.078 C 313.156 336.740,313.524 336.464,313.845 336.464 C 314.165 336.464,314.781 336.014,315.213 335.465 C 315.646 334.915,316.118 334.466,316.264 334.466 C 317.610 334.466,335.585 316.832,337.614 313.522 C 338.227 312.522,337.616 311.779,332.650 307.493 C 331.377 306.394,329.781 304.966,329.104 304.320 C 327.558 302.847,325.303 301.296,324.719 301.306 C 324.475 301.310,322.388 303.413,320.080 305.979 M202.797 390.010 C 203.237 390.199,204.136 390.348,204.795 390.342 C 205.964 390.330,205.969 390.322,204.995 390.010 C 203.529 389.541,201.705 389.541,202.797 390.010 M220.180 390.010 L 218.781 390.304 220.380 390.329 C 221.259 390.342,222.338 390.199,222.777 390.010 C 223.818 389.563,222.304 389.563,220.180 390.010 " stroke="none" fill="#343434" fill-rule="evenodd"></path><path id="path4" d="M204.595 64.606 C 171.803 66.996,141.963 79.497,117.787 100.972 L 113.233 105.017 116.589 108.553 C 118.435 110.497,124.104 116.529,129.186 121.957 L 138.427 131.826 139.969 130.254 C 140.817 129.388,142.623 127.735,143.982 126.578 C 145.341 125.422,146.543 124.386,146.653 124.276 C 148.234 122.695,155.978 117.148,158.442 115.832 C 159.321 115.362,160.130 114.841,160.240 114.674 C 160.350 114.507,161.282 113.947,162.312 113.429 C 169.093 110.019,171.035 109.083,172.630 108.455 C 173.617 108.066,174.515 107.634,174.625 107.496 C 174.856 107.205,180.217 105.495,180.897 105.495 C 181.147 105.495,181.412 105.352,181.485 105.178 C 181.630 104.834,188.327 102.988,192.807 102.058 C 197.514 101.081,204.185 100.218,208.492 100.029 C 211.990 99.875,212.589 99.750,212.597 99.175 C 212.621 97.578,210.823 82.099,210.592 81.918 C 210.452 81.808,210.118 79.560,209.850 76.923 C 208.394 62.629,209.098 64.278,204.595 64.606 M352.448 200.009 C 349.700 200.282,346.733 200.629,345.854 200.780 C 343.411 201.201,339.346 201.663,331.668 202.391 C 327.822 202.755,324.226 203.148,323.676 203.263 C 323.127 203.378,322.216 203.561,321.651 203.669 C 320.637 203.863,320.625 203.909,320.547 207.927 C 320.414 214.779,319.243 225.908,318.480 227.572 C 318.278 228.012,317.722 230.260,317.244 232.567 C 316.766 234.875,316.251 236.853,316.100 236.963 C 315.950 237.073,315.507 238.332,315.117 239.760 C 314.726 241.189,314.170 242.897,313.880 243.556 C 312.257 247.245,311.688 248.710,311.688 249.202 C 311.688 249.503,311.530 249.750,311.337 249.750 C 311.144 249.750,310.586 250.820,310.097 252.128 C 309.608 253.436,309.092 254.560,308.950 254.626 C 308.808 254.692,308.198 255.734,307.594 256.943 C 306.427 259.280,306.319 259.462,303.996 263.006 C 303.172 264.262,302.498 265.389,302.498 265.509 C 302.498 265.792,298.198 271.522,297.103 272.699 C 296.883 272.935,295.987 274.027,295.111 275.125 C 293.301 277.395,285.495 285.208,282.934 287.313 C 281.998 288.082,281.022 288.891,280.766 289.111 C 279.574 290.133,276.960 292.086,275.371 293.142 C 270.966 296.068,270.208 296.542,268.332 297.542 C 267.233 298.127,266.244 298.736,266.134 298.896 C 265.835 299.329,257.651 303.297,257.057 303.297 C 256.775 303.297,256.543 303.441,256.543 303.618 C 256.543 303.794,255.240 304.355,253.646 304.863 C 252.053 305.372,250.569 305.918,250.350 306.076 C 250.130 306.235,248.422 306.786,246.553 307.302 C 244.685 307.817,243.067 308.362,242.957 308.513 C 242.847 308.663,240.599 309.185,237.962 309.672 C 235.325 310.160,232.807 310.714,232.368 310.906 C 229.365 312.211,208.687 312.646,200.999 311.566 C 195.901 310.850,186.650 308.998,185.785 308.520 C 185.439 308.329,183.810 307.796,182.164 307.334 C 180.519 306.872,178.464 306.160,177.598 305.752 C 176.732 305.344,175.170 304.765,174.126 304.466 C 173.082 304.166,172.228 303.793,172.228 303.636 C 172.228 303.479,171.823 303.237,171.329 303.098 C 170.274 302.802,162.930 299.216,162.637 298.854 C 162.527 298.718,161.538 298.127,160.440 297.542 C 157.456 295.953,152.177 292.445,150.682 291.059 C 150.119 290.537,149.548 290.110,149.413 290.110 C 149.278 290.110,148.706 289.705,148.141 289.211 C 147.577 288.716,146.459 287.772,145.659 287.113 C 141.400 283.607,133.259 274.947,129.692 270.130 C 128.471 268.482,127.203 266.848,126.873 266.500 C 126.544 266.152,126.274 265.724,126.274 265.549 C 126.274 265.375,125.578 264.213,124.728 262.968 C 123.878 261.723,123.057 260.307,122.903 259.822 C 122.749 259.338,122.473 258.941,122.289 258.941 C 122.105 258.941,121.545 257.952,121.044 256.743 C 120.543 255.534,120.008 254.545,119.855 254.545 C 119.703 254.545,119.174 253.467,118.681 252.148 C 118.188 250.829,117.660 249.750,117.507 249.750 C 117.354 249.750,116.909 248.716,116.519 247.453 C 116.128 246.189,115.583 244.795,115.306 244.356 C 115.030 243.916,114.379 242.118,113.860 240.360 C 113.340 238.601,112.639 236.606,112.302 235.925 L 111.688 234.688 107.692 235.630 C 105.495 236.148,102.527 236.835,101.099 237.155 C 99.670 237.476,95.804 238.376,92.507 239.154 C 89.211 239.932,83.726 241.215,80.320 242.005 C 76.913 242.794,74.077 243.485,74.018 243.539 C 73.588 243.936,78.089 257.529,80.904 264.336 C 96.432 301.877,132.853 335.347,169.185 345.463 C 178.540 348.067,182.467 349.021,188.012 350.038 C 237.113 359.040,286.834 341.982,321.012 304.410 C 322.733 302.518,324.544 300.868,325.035 300.745 C 325.571 300.610,327.116 298.898,328.898 296.462 C 330.532 294.230,332.363 291.819,332.967 291.104 C 333.571 290.389,334.066 289.665,334.066 289.495 C 334.066 289.325,334.489 288.630,335.006 287.950 C 335.523 287.270,336.267 286.084,336.660 285.315 C 337.053 284.545,337.500 283.826,337.654 283.716 C 337.993 283.474,340.019 279.928,341.537 276.923 C 342.147 275.714,342.746 274.635,342.868 274.525 C 343.150 274.271,345.753 268.779,346.467 266.933 C 346.764 266.164,347.122 265.445,347.262 265.335 C 347.613 265.060,349.385 260.255,351.684 253.347 C 354.459 245.008,355.188 242.408,355.887 238.362 C 356.228 236.384,356.668 234.406,356.865 233.966 C 357.331 232.923,358.310 225.448,358.644 220.380 C 358.789 218.182,359.009 215.934,359.135 215.385 C 359.260 214.835,359.439 211.014,359.534 206.893 L 359.706 199.401 358.574 199.457 C 357.952 199.488,355.195 199.737,352.448 200.009 " stroke="none" fill="#043763" fill-rule="evenodd"></path><path id="path5" d="M211.089 9.486 C 212.353 9.565,214.421 9.565,215.684 9.486 C 216.948 9.407,215.914 9.342,213.387 9.342 C 210.859 9.342,209.825 9.407,211.089 9.486 M204.795 25.932 C 204.356 26.110,201.658 26.373,198.801 26.517 C 192.863 26.814,183.791 27.818,182.018 28.374 C 181.359 28.581,178.571 29.137,175.824 29.610 C 173.077 30.084,170.649 30.608,170.430 30.775 C 170.210 30.942,169.266 31.205,168.332 31.359 C 166.108 31.725,165.906 30.323,171.181 51.149 C 175.192 66.985,175.769 68.927,176.454 68.892 C 176.877 68.871,179.291 68.384,181.818 67.811 C 199.505 63.801,214.532 63.348,236.164 66.174 C 238.911 66.533,241.339 66.959,241.558 67.122 C 241.778 67.285,244.116 67.832,246.753 68.339 C 249.391 68.845,251.638 69.376,251.748 69.519 C 251.858 69.662,253.566 70.196,255.544 70.706 C 257.522 71.216,259.321 71.771,259.540 71.939 C 259.760 72.107,261.289 72.643,262.937 73.130 C 264.585 73.617,266.024 74.148,266.134 74.311 C 266.244 74.474,267.547 75.008,269.031 75.498 C 270.514 75.988,271.728 76.535,271.728 76.713 C 271.728 76.891,272.223 77.159,272.827 77.310 C 274.152 77.640,281.328 81.116,281.984 81.746 C 282.240 81.991,283.049 82.430,283.782 82.721 C 284.515 83.011,285.385 83.462,285.714 83.723 C 286.044 83.984,287.122 84.628,288.110 85.155 C 289.097 85.683,290.255 86.429,290.683 86.813 C 291.110 87.198,291.634 87.512,291.847 87.512 C 292.061 87.512,293.188 88.232,294.352 89.111 C 295.517 89.990,296.657 90.709,296.886 90.709 C 297.115 90.709,297.303 90.871,297.303 91.069 C 297.303 91.267,297.887 91.777,298.601 92.202 C 299.316 92.626,300.350 93.358,300.899 93.828 C 301.959 94.735,304.185 96.527,306.707 98.501 C 307.549 99.161,308.694 100.195,309.253 100.799 C 309.811 101.404,310.454 101.898,310.681 101.898 C 311.131 101.898,313.028 98.946,313.468 97.562 C 313.618 97.090,313.886 96.703,314.064 96.703 C 314.242 96.703,314.774 95.804,315.247 94.705 C 315.719 93.606,316.243 92.707,316.410 92.707 C 316.578 92.707,317.150 91.718,317.682 90.509 C 318.215 89.301,318.763 88.312,318.901 88.312 C 319.171 88.312,320.080 86.490,320.080 85.951 C 320.080 85.772,318.327 84.238,316.184 82.542 C 314.041 80.846,311.935 79.158,311.503 78.790 C 310.571 77.997,309.455 77.227,302.653 72.684 C 299.820 70.793,296.603 68.740,295.504 68.122 C 289.424 64.706,287.619 63.745,284.715 62.382 C 282.957 61.557,280.889 60.635,280.120 60.333 C 279.351 60.032,278.631 59.674,278.521 59.538 C 278.412 59.402,277.153 58.868,275.724 58.351 C 274.296 57.835,272.947 57.286,272.727 57.131 C 272.507 56.976,271.069 56.452,269.530 55.966 C 267.992 55.480,266.194 54.842,265.534 54.548 C 264.875 54.254,263.167 53.712,261.738 53.343 C 260.310 52.974,258.854 52.525,258.503 52.345 C 258.153 52.165,256.090 51.634,253.921 51.164 C 249.254 50.153,249.674 50.450,249.827 48.264 L 249.950 46.491 253.347 47.187 C 257.149 47.967,263.594 49.766,264.582 50.325 C 264.938 50.526,266.017 50.901,266.980 51.158 C 269.205 51.753,275.295 54.076,277.997 55.359 C 279.137 55.901,280.166 56.344,280.285 56.344 C 280.499 56.344,284.664 58.215,287.313 59.500 C 288.794 60.220,296.551 64.431,297.902 65.250 C 298.342 65.516,299.475 66.229,300.420 66.834 C 301.366 67.438,302.714 68.227,303.417 68.586 C 304.120 68.945,304.839 69.485,305.015 69.784 C 305.191 70.084,305.526 70.330,305.761 70.330 C 305.995 70.330,307.110 70.990,308.238 71.797 C 311.805 74.348,314.645 76.466,315.898 77.511 C 316.565 78.067,317.800 79.061,318.641 79.720 C 319.482 80.380,320.537 81.234,320.985 81.618 C 322.300 82.746,322.736 82.348,324.831 78.122 C 325.376 77.023,325.954 76.032,326.116 75.920 C 326.436 75.698,328.426 72.175,329.491 69.946 C 330.134 68.598,330.127 68.546,329.211 67.838 C 328.694 67.439,327.789 66.713,327.198 66.224 C 324.141 63.692,317.286 58.652,315.979 57.974 C 315.377 57.663,314.885 57.271,314.885 57.103 C 314.885 56.936,314.076 56.395,313.087 55.901 C 312.098 55.407,311.289 54.884,311.289 54.739 C 311.289 54.593,310.794 54.251,310.190 53.978 C 309.585 53.705,308.192 52.890,307.093 52.168 C 305.994 51.446,304.690 50.729,304.196 50.575 C 303.701 50.422,303.297 50.159,303.297 49.991 C 303.297 49.824,302.353 49.254,301.199 48.724 C 300.045 48.194,299.005 47.632,298.889 47.475 C 298.772 47.317,297.693 46.717,296.491 46.140 C 295.289 45.563,293.856 44.845,293.307 44.543 C 292.757 44.242,291.049 43.428,289.510 42.734 C 287.972 42.041,285.814 41.051,284.715 40.536 C 283.616 40.021,281.823 39.309,280.729 38.955 C 279.636 38.600,278.557 38.159,278.331 37.975 C 278.106 37.791,276.573 37.238,274.925 36.747 C 273.277 36.255,271.742 35.708,271.514 35.531 C 271.287 35.354,269.669 34.833,267.918 34.374 C 266.168 33.914,264.438 33.374,264.075 33.173 C 263.712 32.973,261.734 32.423,259.679 31.951 C 257.625 31.479,255.225 30.860,254.346 30.574 C 253.467 30.289,250.769 29.751,248.352 29.378 C 245.934 29.005,243.596 28.543,243.157 28.350 C 240.068 26.994,207.270 24.927,204.795 25.932 M39.161 161.029 C 40.370 161.419,41.988 161.844,42.757 161.975 C 43.526 162.105,42.807 161.769,41.159 161.228 C 39.510 160.687,37.892 160.261,37.562 160.282 C 37.233 160.303,37.952 160.639,39.161 161.029 M46.354 163.013 C 47.219 163.519,52.000 164.716,52.232 164.484 C 52.340 164.376,51.646 164.088,50.690 163.843 C 49.733 163.598,48.430 163.226,47.793 163.017 C 46.355 162.546,45.552 162.543,46.354 163.013 M54.745 165.373 C 55.525 165.878,60.372 167.133,60.613 166.893 C 60.797 166.708,57.634 165.713,55.345 165.235 C 54.493 165.057,54.319 165.097,54.745 165.373 M63.144 167.812 C 63.940 168.279,70.375 169.918,70.585 169.708 C 70.755 169.538,63.593 167.423,62.921 167.445 C 62.710 167.451,62.810 167.617,63.144 167.812 M72.128 170.417 C 73.456 171.055,75.395 171.273,74.326 170.663 C 73.996 170.475,73.097 170.213,72.328 170.081 L 70.929 169.840 72.128 170.417 M49.734 185.577 C 49.015 186.102,49.036 186.125,50.053 185.931 C 50.651 185.816,51.041 185.564,50.921 185.369 C 50.640 184.914,50.641 184.914,49.734 185.577 M52.394 189.444 C 52.369 190.012,52.228 190.596,52.082 190.742 C 51.936 190.888,51.766 191.477,51.705 192.051 C 51.644 192.625,51.703 192.985,51.838 192.851 C 51.972 192.717,52.117 192.292,52.159 191.908 C 52.202 191.523,52.367 190.905,52.526 190.533 C 52.685 190.161,52.731 189.532,52.628 189.134 C 52.497 188.632,52.426 188.726,52.394 189.444 M48.641 191.309 C 48.387 191.794,48.260 195.626,48.506 195.382 C 48.783 195.107,49.225 191.009,48.977 191.009 C 48.879 191.009,48.728 191.144,48.641 191.309 M30.870 196.404 C 30.874 197.283,30.956 197.595,31.052 197.098 C 31.147 196.601,31.144 195.882,31.044 195.500 C 30.944 195.118,30.866 195.524,30.870 196.404 M51.597 195.904 C 51.416 196.399,51.256 197.702,51.244 198.801 C 51.227 200.288,51.298 200.544,51.522 199.800 C 51.687 199.251,51.760 198.411,51.683 197.934 C 51.607 197.456,51.721 196.602,51.936 196.036 C 52.152 195.469,52.238 195.005,52.128 195.005 C 52.018 195.005,51.779 195.410,51.597 195.904 M51.026 202.498 C 50.908 203.102,50.932 203.722,51.080 203.875 C 51.228 204.028,51.393 203.533,51.448 202.776 C 51.568 201.125,51.327 200.966,51.026 202.498 M14.143 208.591 C 14.143 211.558,14.205 212.772,14.282 211.289 C 14.359 209.805,14.359 207.378,14.282 205.894 C 14.205 204.411,14.143 205.624,14.143 208.591 M51.240 219.672 C 51.320 220.813,51.517 221.880,51.678 222.041 C 51.987 222.350,51.586 218.123,51.275 217.789 C 51.177 217.683,51.161 218.530,51.240 219.672 M30.884 219.980 C 30.887 221.079,30.964 221.481,31.056 220.874 C 31.148 220.266,31.145 219.367,31.051 218.876 C 30.956 218.384,30.881 218.881,30.884 219.980 M47.999 220.056 C 48.136 222.146,48.656 223.212,48.704 221.502 C 48.730 220.581,48.571 219.716,48.352 219.580 C 48.132 219.445,47.973 219.659,47.999 220.056 M48.609 224.575 C 48.926 226.299,49.153 226.624,49.145 225.341 C 49.141 224.810,48.962 224.106,48.746 223.776 C 48.469 223.355,48.429 223.591,48.609 224.575 M51.792 225.175 C 52.121 226.644,52.350 226.963,52.342 225.941 C 52.338 225.519,52.153 224.905,51.930 224.575 C 51.634 224.138,51.596 224.299,51.792 225.175 M52.156 228.215 C 52.386 229.409,52.747 229.682,52.747 228.662 C 52.747 228.198,52.577 227.714,52.369 227.585 C 52.158 227.455,52.064 227.736,52.156 228.215 M52.376 230.203 C 52.391 230.514,52.565 231.129,52.761 231.568 C 53.069 232.258,53.104 232.218,53.015 231.284 C 52.908 230.171,52.325 229.186,52.376 230.203 M53.546 238.385 C 53.546 238.948,53.709 239.307,53.909 239.184 C 54.108 239.061,54.177 238.601,54.062 238.161 C 53.774 237.062,53.546 237.161,53.546 238.385 M75.374 250.150 C 75.649 251.735,76.313 253.199,76.281 252.148 C 76.271 251.818,76.008 250.919,75.697 250.150 L 75.132 248.751 75.374 250.150 M53.499 251.436 C 53.683 252.546,53.739 252.602,53.865 251.802 C 53.947 251.282,53.849 250.692,53.648 250.491 C 53.426 250.269,53.367 250.642,53.499 251.436 M56.474 250.774 C 56.556 251.200,56.726 251.818,56.851 252.148 C 56.977 252.478,57.271 253.287,57.506 253.946 C 57.932 255.144,57.932 255.144,57.691 253.746 C 57.557 252.977,57.340 252.168,57.207 251.948 C 57.074 251.728,56.929 251.307,56.884 251.012 C 56.840 250.717,56.696 250.369,56.564 250.237 C 56.433 250.106,56.393 250.347,56.474 250.774 M77.752 257.343 C 77.899 257.892,78.185 258.611,78.389 258.941 C 78.646 259.358,78.678 259.236,78.492 258.541 C 78.345 257.992,78.058 257.273,77.855 256.943 C 77.597 256.526,77.566 256.648,77.752 257.343 M59.055 259.540 C 59.277 259.980,59.652 260.789,59.888 261.339 C 60.300 262.295,60.308 262.286,60.080 261.139 C 59.948 260.480,59.573 259.670,59.246 259.341 C 58.719 258.809,58.698 258.832,59.055 259.540 M79.758 262.537 C 80.089 263.855,81.182 266.203,81.376 266.010 C 81.459 265.927,81.073 264.886,80.518 263.698 C 79.962 262.510,79.621 261.988,79.758 262.537 M81.518 266.617 C 81.518 267.040,83.510 271.329,83.706 271.329 C 83.816 271.329,83.453 270.304,82.899 269.051 C 81.939 266.882,81.518 266.140,81.518 266.617 M83.916 271.875 C 83.916 272.308,85.902 276.124,86.127 276.124 C 86.237 276.124,85.853 275.180,85.273 274.026 C 84.159 271.807,83.916 271.422,83.916 271.875 M62.365 276.523 C 62.364 276.853,62.627 277.472,62.950 277.899 C 63.696 278.886,63.688 278.236,62.937 276.923 C 62.606 276.344,62.365 276.176,62.365 276.523 M87.113 278.122 C 87.561 279.001,88.018 279.720,88.128 279.720 C 88.238 279.720,87.961 279.001,87.512 278.122 C 87.064 277.243,86.607 276.523,86.497 276.523 C 86.387 276.523,86.664 277.243,87.113 278.122 M44.384 277.922 C 44.384 278.142,44.641 278.771,44.955 279.321 C 45.269 279.870,45.526 280.140,45.526 279.920 C 45.526 279.700,45.269 279.071,44.955 278.521 C 44.641 277.972,44.384 277.702,44.384 277.922 M63.896 279.920 C 64.569 281.223,65.123 281.946,65.120 281.518 C 65.118 281.299,64.749 280.669,64.300 280.120 C 63.757 279.456,63.622 279.389,63.896 279.920 M88.902 281.280 C 89.783 283.011,93.046 288.112,93.273 288.112 C 93.463 288.112,88.928 280.593,88.489 280.181 C 88.335 280.038,88.522 280.532,88.902 281.280 M94.101 289.510 C 95.173 291.245,97.895 294.905,98.113 294.905 C 98.329 294.905,94.416 289.307,93.784 288.711 C 93.551 288.492,93.693 288.851,94.101 289.510 M98.767 295.943 C 99.781 297.536,104.496 303.265,104.808 303.281 C 104.979 303.289,103.990 301.924,102.610 300.247 C 99.365 296.303,98.083 294.868,98.767 295.943 M73.526 297.048 C 73.526 297.519,74.500 299.034,75.475 300.080 C 75.997 300.640,76.277 300.829,76.096 300.500 C 75.524 299.454,73.526 296.772,73.526 297.048 M80.819 304.073 C 79.827 304.901,79.641 305.377,80.428 305.075 C 80.849 304.913,82.148 303.268,81.822 303.310 C 81.765 303.317,81.314 303.661,80.819 304.073 M106.199 304.978 L 107.103 305.957 102.009 310.920 C 99.207 313.650,94.484 318.219,91.514 321.073 C 88.544 323.928,84.724 327.606,83.025 329.248 L 79.936 332.233 78.644 331.052 C 77.368 329.885,77.370 329.891,78.756 331.469 C 82.724 335.987,92.670 345.249,98.495 349.850 C 99.329 350.509,100.335 351.352,100.729 351.722 C 101.123 352.091,101.952 352.719,102.571 353.116 C 103.190 353.514,104.765 354.650,106.071 355.641 C 107.377 356.632,109.021 357.802,109.724 358.242 C 110.427 358.681,112.235 359.861,113.743 360.864 C 115.250 361.867,117.652 363.362,119.081 364.187 C 120.509 365.012,121.948 365.848,122.278 366.045 C 124.763 367.530,131.072 370.829,131.428 370.829 C 131.670 370.829,131.868 370.995,131.868 371.198 C 131.868 371.401,132.542 371.780,133.367 372.041 C 134.191 372.303,135.584 372.922,136.464 373.417 C 137.343 373.912,138.781 374.548,139.660 374.829 C 140.539 375.110,141.349 375.468,141.459 375.623 C 141.568 375.778,142.737 376.296,144.056 376.774 C 145.375 377.252,146.813 377.812,147.253 378.018 C 149.281 378.970,158.649 382.005,162.238 382.872 C 162.567 382.952,162.927 383.119,163.037 383.244 C 163.147 383.368,164.675 383.793,166.434 384.188 C 168.192 384.582,170.350 385.135,171.229 385.416 C 172.108 385.698,174.805 386.233,177.223 386.606 C 179.640 386.979,181.978 387.441,182.418 387.634 C 184.562 388.575,202.573 390.073,212.388 390.126 C 221.172 390.173,240.833 388.631,242.198 387.787 C 242.379 387.676,244.736 387.227,247.437 386.790 C 253.310 385.840,254.945 385.353,254.945 384.553 C 254.945 383.653,246.591 349.638,246.280 349.271 C 246.196 349.172,245.100 349.315,243.843 349.589 C 196.391 359.922,146.724 345.177,111.688 310.354 C 108.172 306.859,105.702 304.440,106.199 304.978 " stroke="none" fill="#4b4b4c" fill-rule="evenodd"></path><path id="path6" d="M109.084 109.391 C 76.651 143.809,63.128 191.360,72.575 237.762 C 73.134 240.509,73.736 242.907,73.913 243.091 C 74.212 243.402,77.188 242.772,92.507 239.154 C 95.804 238.375,99.580 237.496,100.899 237.200 C 108.646 235.461,111.321 234.806,111.588 234.579 C 111.850 234.358,111.432 232.165,109.948 225.974 C 109.536 224.255,109.279 222.251,108.667 215.984 C 107.902 208.143,108.556 191.861,109.855 186.414 C 110.065 185.534,110.698 182.837,111.262 180.420 C 111.826 178.002,112.454 175.664,112.659 175.225 C 112.863 174.785,113.430 173.077,113.919 171.429 C 114.407 169.780,115.029 168.072,115.300 167.632 C 115.572 167.193,116.110 165.844,116.497 164.635 C 116.884 163.427,117.331 162.348,117.491 162.238 C 117.651 162.128,118.200 161.049,118.710 159.840 C 119.221 158.631,119.762 157.552,119.914 157.443 C 120.066 157.333,120.488 156.523,120.853 155.644 C 121.217 154.765,121.931 153.417,122.440 152.647 C 122.948 151.878,124.099 150.080,124.998 148.651 C 125.896 147.223,126.790 145.869,126.984 145.644 C 127.178 145.418,127.669 144.699,128.076 144.046 C 128.483 143.392,129.019 142.677,129.268 142.458 C 129.517 142.238,130.159 141.414,130.694 140.627 C 131.959 138.768,135.292 134.879,137.036 133.227 L 138.408 131.928 136.861 130.200 C 130.920 123.566,113.647 105.495,113.247 105.495 C 112.977 105.495,111.104 107.248,109.084 109.391 " stroke="none" fill="#1b5b8b" fill-rule="evenodd"></path><path id="path7" d="" stroke="none" fill="#1c648c" fill-rule="evenodd"></path><path id="path8" d="M171.089 70.379 C 169.693 70.821,168.621 71.251,168.705 71.335 C 168.789 71.420,170.201 71.063,171.842 70.542 C 173.483 70.021,174.555 69.591,174.226 69.585 C 173.896 69.580,172.485 69.937,171.089 70.379 M163.237 73.134 C 162.358 73.566,162.076 73.808,162.612 73.672 C 164.110 73.292,166.107 72.360,165.435 72.354 C 165.105 72.351,164.116 72.702,163.237 73.134 M156.843 75.698 C 155.744 76.227,155.025 76.663,155.245 76.667 C 155.795 76.677,159.738 74.799,159.241 74.764 C 159.021 74.748,157.942 75.169,156.843 75.698 M149.750 78.946 C 147.827 79.926,146.254 80.818,146.254 80.927 C 146.254 81.106,153.407 77.651,153.813 77.277 C 154.396 76.739,152.768 77.407,149.750 78.946 M143.157 82.364 C 141.353 83.519,141.521 83.784,143.357 82.680 C 145.214 81.563,145.273 81.517,144.822 81.525 C 144.620 81.529,143.871 81.906,143.157 82.364 M138.040 85.415 C 136.710 86.239,135.091 87.337,134.444 87.854 L 133.267 88.796 134.466 88.078 C 138.891 85.429,141.109 83.915,140.559 83.916 C 140.504 83.916,139.371 84.591,138.040 85.415 M130.435 90.390 C 121.892 96.461,111.343 106.033,104.808 113.643 C 100.201 119.009,100.142 119.081,100.395 119.081 C 100.515 119.081,101.919 117.530,103.515 115.635 C 110.511 107.327,118.615 99.706,127.672 92.918 C 133.359 88.655,133.288 88.711,132.999 88.711 C 132.888 88.711,131.734 89.467,130.435 90.390 M97.173 123.177 C 94.482 126.826,93.381 128.483,94.186 127.672 C 94.923 126.929,100.300 119.481,100.098 119.481 C 99.988 119.481,98.672 121.144,97.173 123.177 M92.460 129.970 C 91.085 132.304,90.995 132.503,91.695 131.668 C 92.507 130.701,93.207 129.471,92.945 129.471 C 92.840 129.471,92.622 129.695,92.460 129.970 M90.218 133.566 C 89.344 134.914,88.560 136.519,88.998 136.064 C 89.558 135.482,91.207 132.667,90.988 132.667 C 90.885 132.667,90.539 133.072,90.218 133.566 M87.712 137.862 C 87.371 138.521,87.182 139.061,87.292 139.061 C 87.402 139.061,87.771 138.521,88.112 137.862 C 88.453 137.203,88.642 136.663,88.532 136.663 C 88.422 136.663,88.053 137.203,87.712 137.862 M84.895 143.097 C 84.327 144.217,83.929 145.201,84.011 145.283 C 84.093 145.365,84.643 144.448,85.233 143.246 C 85.822 142.043,86.220 141.059,86.116 141.059 C 86.012 141.059,85.463 141.976,84.895 143.097 M82.898 147.090 C 82.546 147.770,82.330 148.397,82.416 148.484 C 82.503 148.570,82.873 148.014,83.239 147.248 C 84.060 145.524,83.776 145.393,82.898 147.090 M80.385 152.864 C 79.715 154.334,79.843 154.647,80.567 153.311 C 80.905 152.687,81.107 152.102,81.015 152.011 C 80.924 151.920,80.640 152.304,80.385 152.864 M75.561 166.270 C 75.291 167.172,75.143 167.984,75.233 168.073 C 75.323 168.163,75.618 167.499,75.888 166.597 C 76.158 165.695,76.306 164.884,76.216 164.794 C 76.126 164.704,75.831 165.368,75.561 166.270 M324.675 300.876 C 324.236 301.055,322.777 302.437,321.434 303.947 C 304.314 323.200,281.445 338.024,257.011 345.710 C 255.399 346.217,254.268 346.694,254.497 346.770 C 254.725 346.846,256.853 346.247,259.224 345.437 C 282.998 337.325,304.105 323.657,320.019 306.069 C 322.294 303.555,324.497 301.369,324.914 301.212 C 325.332 301.054,325.674 300.829,325.674 300.712 C 325.674 300.462,325.700 300.458,324.675 300.876 M111.688 310.490 C 114.098 312.907,116.160 314.885,116.270 314.885 C 116.380 314.885,114.498 312.907,112.088 310.490 C 109.678 308.072,107.616 306.094,107.506 306.094 C 107.396 306.094,109.278 308.072,111.688 310.490 M210.894 312.371 C 211.391 312.466,212.110 312.462,212.492 312.362 C 212.874 312.262,212.468 312.184,211.588 312.189 C 210.709 312.193,210.397 312.275,210.894 312.371 M170.030 346.054 C 171.225 346.567,172.223 346.567,171.429 346.054 C 171.099 345.841,170.470 345.676,170.030 345.689 L 169.231 345.711 170.030 346.054 M172.827 346.853 C 173.267 347.042,173.896 347.197,174.226 347.197 C 174.604 347.197,174.530 347.070,174.026 346.853 C 173.586 346.664,172.957 346.510,172.627 346.510 C 172.250 346.510,172.323 346.637,172.827 346.853 M249.555 347.759 C 247.800 348.215,246.576 348.659,246.835 348.745 C 247.318 348.906,253.746 347.291,253.746 347.009 C 253.746 346.743,252.861 346.901,249.555 347.759 M175.058 347.419 C 175.314 347.673,181.680 349.256,182.284 349.215 C 182.577 349.195,181.199 348.750,179.221 348.225 C 175.641 347.277,174.741 347.102,175.058 347.419 M186.882 350.224 C 188.018 350.513,189.996 350.849,191.277 350.972 L 193.606 351.194 191.009 350.656 C 189.580 350.360,187.602 350.024,186.613 349.909 L 184.815 349.700 186.882 350.224 M237.166 350.365 C 235.189 350.706,233.801 351.061,234.080 351.154 C 234.609 351.330,242.207 350.134,242.515 349.826 C 242.813 349.528,240.919 349.719,237.166 350.365 M194.705 351.524 C 195.090 351.625,195.719 351.625,196.104 351.524 C 196.489 351.424,196.174 351.341,195.405 351.341 C 194.635 351.341,194.321 351.424,194.705 351.524 M231.469 351.524 C 231.853 351.625,232.483 351.625,232.867 351.524 C 233.252 351.424,232.937 351.341,232.168 351.341 C 231.399 351.341,231.084 351.424,231.469 351.524 M198.506 351.931 C 199.003 352.027,199.723 352.023,200.105 351.923 C 200.487 351.823,200.080 351.745,199.201 351.749 C 198.322 351.754,198.009 351.835,198.506 351.931 M227.277 351.931 C 227.774 352.027,228.494 352.023,228.876 351.923 C 229.258 351.823,228.851 351.745,227.972 351.749 C 227.093 351.754,226.780 351.835,227.277 351.931 M204.196 352.501 C 205.624 352.640,209.850 352.754,213.586 352.754 C 217.323 352.754,221.548 352.640,222.977 352.501 C 224.406 352.362,220.180 352.248,213.586 352.248 C 206.993 352.248,202.767 352.362,204.196 352.501 " stroke="none" fill="#1f3544" fill-rule="evenodd"></path></g></svg>